<svg width="179" height="100" viewBox="0 0 179 100" fill="none" xmlns="http://www.w3.org/2000/svg">
<g clip-path="url(#clip0_526_5640)">
<path opacity="0.6" d="M13.875 59.1819L13.875 40.394L23.2689 45.6129V54.0152L30.7841 58.2425L38.2992 54.0152V45.6129L47.6932 40.394V59.1819L30.7841 68.5758L13.875 59.1819Z" fill="white"/>
<path fill-rule="evenodd" clip-rule="evenodd" d="M18.572 43.0034L13.875 40.3939L30.7841 31L47.6932 40.3939L42.9962 43.0034V56.8333L30.7841 63.8788L18.572 56.8333L18.572 43.0034ZM42.4874 43.2861L38.2992 45.6128V45.5606L30.7841 41.3333L23.2689 45.5606V45.6128L19.0808 43.2861V56.5443L30.7841 63.2962L42.4874 56.5443V43.2861Z" fill="white"/>
<path d="M56.6953 57.6968V41.915H59.6713V54.9913H66.8859V57.6968H56.6953Z" fill="white"/>
<path d="M73.311 58.0125C72.1988 58.0125 71.1993 57.7871 70.3125 57.3361C69.4257 56.8852 68.7268 56.2314 68.2158 55.3747C67.7047 54.518 67.4492 53.4884 67.4492 52.286V51.9252C67.4492 50.7228 67.7047 49.6932 68.2158 48.8365C68.7268 47.9798 69.4257 47.326 70.3125 46.8751C71.1993 46.4241 72.1988 46.1987 73.311 46.1987C74.4233 46.1987 75.4228 46.4241 76.3096 46.8751C77.1964 47.326 77.8953 47.9798 78.4063 48.8365C78.9173 49.6932 79.1729 50.7228 79.1729 51.9252V52.286C79.1729 53.4884 78.9173 54.518 78.4063 55.3747C77.8953 56.2314 77.1964 56.8852 76.3096 57.3361C75.4228 57.7871 74.4233 58.0125 73.311 58.0125ZM73.311 55.4874C74.1828 55.4874 74.9043 55.2094 75.4754 54.6532C76.0466 54.0821 76.3321 53.2704 76.3321 52.2183V51.9929C76.3321 50.9408 76.0466 50.1366 75.4754 49.5805C74.9193 49.0094 74.1978 48.7238 73.311 48.7238C72.4393 48.7238 71.7178 49.0094 71.1467 49.5805C70.5755 50.1366 70.29 50.9408 70.29 51.9929V52.2183C70.29 53.2704 70.5755 54.0821 71.1467 54.6532C71.7178 55.2094 72.4393 55.4874 73.311 55.4874Z" fill="white"/>
<path d="M80.2383 52.1507V51.79C80.2383 50.6176 80.4712 49.6181 80.9372 48.7914C81.4031 47.9497 82.0194 47.3109 82.7859 46.8751C83.5675 46.4241 84.4167 46.1987 85.3335 46.1987C86.3556 46.1987 87.1297 46.3791 87.6557 46.7398C88.1818 47.1005 88.5651 47.4763 88.8055 47.8671H89.2114V46.5143H92.007V59.6809C92.007 60.4474 91.7815 61.0561 91.3306 61.5071C90.8797 61.973 90.2785 62.206 89.527 62.206H82.0419V59.726H88.535C88.9558 59.726 89.1663 59.5005 89.1663 59.0496V56.1412H88.7604C88.6101 56.3817 88.3997 56.6297 88.1292 56.8852C87.8586 57.1257 87.4979 57.3286 87.047 57.494C86.5961 57.6593 86.0249 57.742 85.3335 57.742C84.4167 57.742 83.5675 57.524 82.7859 57.0881C82.0194 56.6372 81.4031 55.9984 80.9372 55.1718C80.4712 54.3301 80.2383 53.3231 80.2383 52.1507ZM86.1452 55.262C87.0169 55.262 87.7459 54.9839 88.3321 54.4278C88.9183 53.8717 89.2114 53.0901 89.2114 52.0831V51.8576C89.2114 50.8355 88.9183 50.054 88.3321 49.5129C87.7609 48.9568 87.032 48.6787 86.1452 48.6787C85.2734 48.6787 84.5444 48.9568 83.9583 49.5129C83.3721 50.054 83.079 50.8355 83.079 51.8576V52.0831C83.079 53.0901 83.3721 53.8717 83.9583 54.4278C84.5444 54.9839 85.2734 55.262 86.1452 55.262Z" fill="white"/>
<path d="M99.4634 58.0125C98.3511 58.0125 97.3516 57.7871 96.4648 57.3361C95.578 56.8852 94.8791 56.2314 94.3681 55.3747C93.8571 54.518 93.6016 53.4884 93.6016 52.286V51.9252C93.6016 50.7228 93.8571 49.6932 94.3681 48.8365C94.8791 47.9798 95.578 47.326 96.4648 46.8751C97.3516 46.4241 98.3511 46.1987 99.4634 46.1987C100.576 46.1987 101.575 46.4241 102.462 46.8751C103.349 47.326 104.048 47.9798 104.559 48.8365C105.07 49.6932 105.325 50.7228 105.325 51.9252V52.286C105.325 53.4884 105.07 54.518 104.559 55.3747C104.048 56.2314 103.349 56.8852 102.462 57.3361C101.575 57.7871 100.576 58.0125 99.4634 58.0125ZM99.4634 55.4874C100.335 55.4874 101.057 55.2094 101.628 54.6532C102.199 54.0821 102.484 53.2704 102.484 52.2183V51.9929C102.484 50.9408 102.199 50.1366 101.628 49.5805C101.072 49.0094 100.35 48.7238 99.4634 48.7238C98.5916 48.7238 97.8702 49.0094 97.299 49.5805C96.7279 50.1366 96.4423 50.9408 96.4423 51.9929V52.2183C96.4423 53.2704 96.7279 54.0821 97.299 54.6532C97.8702 55.2094 98.5916 55.4874 99.4634 55.4874Z" fill="white"/>
<path d="M106.933 57.6971V46.5145H109.774V57.6971H106.933ZM108.353 45.2069C107.842 45.2069 107.407 45.0416 107.046 44.7109C106.7 44.3802 106.527 43.9443 106.527 43.4033C106.527 42.8622 106.7 42.4263 107.046 42.0956C107.407 41.765 107.842 41.5996 108.353 41.5996C108.88 41.5996 109.315 41.765 109.661 42.0956C110.007 42.4263 110.18 42.8622 110.18 43.4033C110.18 43.9443 110.007 44.3802 109.661 44.7109C109.315 45.0416 108.88 45.2069 108.353 45.2069Z" fill="white"/>
<path d="M111.906 62.206V46.5143H114.702V47.8671H115.108C115.363 47.4312 115.761 47.0479 116.303 46.7172C116.844 46.3715 117.618 46.1987 118.625 46.1987C119.527 46.1987 120.361 46.4241 121.127 46.8751C121.894 47.3109 122.51 47.9572 122.976 48.814C123.442 49.6707 123.675 50.7078 123.675 51.9252V52.286C123.675 53.5034 123.442 54.5405 122.976 55.3972C122.51 56.254 121.894 56.9078 121.127 57.3587C120.361 57.7946 119.527 58.0125 118.625 58.0125C117.948 58.0125 117.377 57.9298 116.911 57.7645C116.46 57.6142 116.092 57.4188 115.807 57.1783C115.536 56.9228 115.318 56.6673 115.153 56.4118H114.747V62.206H111.906ZM117.768 55.5325C118.655 55.5325 119.384 55.2544 119.955 54.6983C120.541 54.1272 120.834 53.3005 120.834 52.2183V51.9929C120.834 50.9107 120.541 50.0915 119.955 49.5354C119.369 48.9643 118.64 48.6787 117.768 48.6787C116.896 48.6787 116.167 48.9643 115.581 49.5354C114.995 50.0915 114.702 50.9107 114.702 51.9929V52.2183C114.702 53.3005 114.995 54.1272 115.581 54.6983C116.167 55.2544 116.896 55.5325 117.768 55.5325Z" fill="white"/>
<path d="M129.913 58.0125C128.455 58.0125 127.26 57.6969 126.328 57.0656C125.397 56.4343 124.833 55.5325 124.637 54.3601L127.253 53.6838C127.358 54.2098 127.531 54.6232 127.771 54.9238C128.027 55.2244 128.335 55.4423 128.696 55.5776C129.071 55.6978 129.477 55.758 129.913 55.758C130.574 55.758 131.063 55.6452 131.379 55.4198C131.694 55.1793 131.852 54.8862 131.852 54.5405C131.852 54.1948 131.702 53.9318 131.401 53.7514C131.101 53.556 130.62 53.3982 129.958 53.278L129.327 53.1652C128.545 53.0149 127.831 52.812 127.185 52.5565C126.539 52.286 126.02 51.9177 125.629 51.4518C125.239 50.9858 125.043 50.3846 125.043 49.6481C125.043 48.5359 125.449 47.6867 126.261 47.1005C127.072 46.4993 128.14 46.1987 129.462 46.1987C130.71 46.1987 131.747 46.4768 132.573 47.0329C133.4 47.589 133.941 48.318 134.197 49.2198L131.559 50.0314C131.439 49.4603 131.191 49.0544 130.815 48.814C130.454 48.5735 130.003 48.4532 129.462 48.4532C128.921 48.4532 128.508 48.5509 128.222 48.7463C127.937 48.9267 127.794 49.1822 127.794 49.5129C127.794 49.8736 127.944 50.1441 128.245 50.3245C128.545 50.4898 128.951 50.6176 129.462 50.7078L130.093 50.8205C130.935 50.9708 131.694 51.1737 132.371 51.4292C133.062 51.6697 133.603 52.0229 133.994 52.4889C134.4 52.9398 134.603 53.556 134.603 54.3376C134.603 55.51 134.174 56.4193 133.317 57.0656C132.476 57.6969 131.341 58.0125 129.913 58.0125Z" fill="white"/>
<path d="M140.339 57.8775C139.468 57.8775 138.701 57.6821 138.04 57.2914C137.394 56.8855 136.89 56.3294 136.529 55.623C136.169 54.9166 135.988 54.1049 135.988 53.1881V46.5146H138.829V52.9626C138.829 53.8043 139.032 54.4356 139.438 54.8564C139.858 55.2773 140.452 55.4877 141.219 55.4877C142.09 55.4877 142.767 55.2021 143.248 54.631C143.729 54.0448 143.969 53.2332 143.969 52.1961V46.5146H146.81V57.6972H144.014V56.2317H143.609C143.428 56.6075 143.09 56.9757 142.594 57.3364C142.098 57.6972 141.346 57.8775 140.339 57.8775Z" fill="white"/>
<path d="M148.957 57.6969V46.5143H151.752V47.7318H152.158C152.353 47.356 152.677 47.0329 153.127 46.7623C153.578 46.4768 154.172 46.334 154.909 46.334C155.705 46.334 156.344 46.4918 156.825 46.8074C157.306 47.108 157.674 47.5063 157.93 48.0023H158.335C158.591 47.5214 158.952 47.1231 159.418 46.8074C159.884 46.4918 160.545 46.334 161.402 46.334C162.093 46.334 162.717 46.4843 163.273 46.7849C163.844 47.0704 164.295 47.5138 164.626 48.1151C164.971 48.7012 165.144 49.4452 165.144 50.3471V57.6969H162.303V50.55C162.303 49.9337 162.146 49.4753 161.83 49.1747C161.514 48.8591 161.071 48.7012 160.5 48.7012C159.854 48.7012 159.35 48.9117 158.989 49.3325C158.644 49.7383 158.471 50.3245 158.471 51.0911V57.6969H155.63V50.55C155.63 49.9337 155.472 49.4753 155.157 49.1747C154.841 48.8591 154.398 48.7012 153.826 48.7012C153.18 48.7012 152.677 48.9117 152.316 49.3325C151.97 49.7383 151.797 50.3245 151.797 51.0911V57.6969H148.957Z" fill="white"/>
</g>
<defs>
<clipPath id="clip0_526_5640">
<rect width="153" height="38" fill="white" transform="translate(12.9961 31)"/>
</clipPath>
</defs>
</svg>
