<svg width="190" height="30" viewBox="0 0 190 30" fill="none" xmlns="http://www.w3.org/2000/svg">
<path fill-rule="evenodd" clip-rule="evenodd" d="M14.9913 1.25195C15.4671 1.25195 15.9017 1.52208 16.1122 1.94875L19.6788 9.17543L27.6531 10.3311C28.1242 10.3994 28.5157 10.7294 28.6627 11.1821C28.8097 11.6349 28.6868 12.1319 28.3457 12.4639L22.567 18.0889L23.9296 26.0319C24.0101 26.501 23.8171 26.9752 23.4318 27.2548C23.0466 27.5344 22.536 27.571 22.1148 27.3491L14.9994 23.5995L7.86678 27.3496C7.44562 27.571 6.93528 27.5342 6.55034 27.2545C6.1654 26.9748 5.97262 26.5008 6.05307 26.0319L7.41562 18.0889L1.63694 12.4639C1.29582 12.1319 1.17291 11.6349 1.31994 11.1821C1.46697 10.7294 1.85842 10.3994 2.32954 10.3311L10.3039 9.17543L13.8704 1.94875C14.081 1.52208 14.5155 1.25195 14.9913 1.25195Z" fill="#FC6B5C"/>
<path fill-rule="evenodd" clip-rule="evenodd" d="M54.9923 1.25195C55.4681 1.25195 55.9027 1.52208 56.1132 1.94875L59.6798 9.17543L67.6541 10.3311C68.1252 10.3994 68.5166 10.7294 68.6637 11.1821C68.8107 11.6349 68.6878 12.1319 68.3467 12.4639L62.568 18.0889L63.9306 26.0319C64.011 26.501 63.8181 26.9752 63.4328 27.2548C63.0476 27.5344 62.5369 27.571 62.1158 27.3491L55.0004 23.5995L47.8678 27.3496C47.4466 27.571 46.9363 27.5342 46.5513 27.2545C46.1664 26.9748 45.9736 26.5008 46.054 26.0319L47.4166 18.0889L41.6379 12.4639C41.2968 12.1319 41.1739 11.6349 41.3209 11.1821C41.468 10.7294 41.8594 10.3994 42.3305 10.3311L50.3048 9.17543L53.8714 1.94875C54.082 1.52208 54.5165 1.25195 54.9923 1.25195Z" fill="#FC6B5C"/>
<path fill-rule="evenodd" clip-rule="evenodd" d="M94.9913 1.25195C95.4671 1.25195 95.9017 1.52208 96.1122 1.94875L99.6788 9.17543L107.653 10.3311C108.124 10.3994 108.516 10.7294 108.663 11.1821C108.81 11.6349 108.687 12.1319 108.346 12.4639L102.567 18.0889L103.93 26.0319C104.01 26.501 103.817 26.9752 103.432 27.2548C103.047 27.5344 102.536 27.571 102.115 27.3491L94.9994 23.5995L87.8668 27.3496C87.4456 27.571 86.9353 27.5342 86.5503 27.2545C86.1654 26.9748 85.9726 26.5008 86.0531 26.0319L87.4156 18.0889L81.6369 12.4639C81.2958 12.1319 81.1729 11.6349 81.3199 11.1821C81.467 10.7294 81.8584 10.3994 82.3295 10.3311L90.3039 9.17543L93.8704 1.94875C94.081 1.52208 94.5155 1.25195 94.9913 1.25195Z" fill="#FC6B5C"/>
<path fill-rule="evenodd" clip-rule="evenodd" d="M134.991 1.25195C135.467 1.25195 135.902 1.52208 136.112 1.94875L139.679 9.17543L147.653 10.3311C148.124 10.3994 148.516 10.7294 148.663 11.1821C148.81 11.6349 148.687 12.1319 148.346 12.4639L142.567 18.0889L143.93 26.0319C144.01 26.501 143.817 26.9752 143.432 27.2548C143.047 27.5344 142.536 27.571 142.115 27.3491L134.999 23.5995L127.867 27.3496C127.446 27.571 126.935 27.5342 126.55 27.2545C126.165 26.9748 125.973 26.5008 126.053 26.0319L127.416 18.0889L121.637 12.4639C121.296 12.1319 121.173 11.6349 121.32 11.1821C121.467 10.7294 121.858 10.3994 122.33 10.3311L130.304 9.17543L133.87 1.94875C134.081 1.52208 134.516 1.25195 134.991 1.25195Z" fill="#FC6B5C"/>
<path fill-rule="evenodd" clip-rule="evenodd" d="M174.991 1.25195C175.467 1.25195 175.902 1.52208 176.112 1.94875L179.679 9.17543L187.653 10.3311C188.124 10.3994 188.516 10.7294 188.663 11.1821C188.81 11.6349 188.687 12.1319 188.346 12.4639L182.567 18.0889L183.93 26.0319C184.01 26.501 183.817 26.9752 183.432 27.2548C183.047 27.5344 182.536 27.571 182.115 27.3491L174.999 23.5995L167.867 27.3496C167.446 27.571 166.935 27.5342 166.55 27.2545C166.165 26.9748 165.973 26.5008 166.053 26.0319L167.416 18.0889L161.637 12.4639C161.296 12.1319 161.173 11.6349 161.32 11.1821C161.467 10.7294 161.858 10.3994 162.33 10.3311L170.304 9.17543L173.87 1.94875C174.081 1.52208 174.516 1.25195 174.991 1.25195Z" fill="#FC6B5C"/>
</svg>
